<svg id="Layer_1" data-name="Layer 1" xmlns="http://www.w3.org/2000/svg" viewBox="0 0 337.52 81.87"><defs><style>.cls-1{fill:#262626;}</style></defs><title>menu-black</title><path class="cls-1" d="M70.88,10.58l-14.34,39c-3.59,10.16-6.45,19-8.49,27.13H47.69c-2-8.37-4.78-17.21-8.13-27.13l-13.75-39H12.55L6.93,91.14h9.92L19,56.59C19.72,44.52,20.32,31,20.56,21H20.8c2.27,9.56,5.5,20,9.32,31.31l13,38.37H51L65.26,51.57C69.32,40.46,72.67,30.42,75.42,21h0.36c-0.12,10,.6,23.55,1.2,34.78l2,35.38H89.16l-5-80.56H70.88Z" transform="translate(-6.93 -10.58)"/><path class="cls-1" d="M257.2,44.28c0,12.55.24,22.35,1.2,33.11l-0.24.12A228,228,0,0,0,243.7,51.34L217.88,10.58H206.53V91.14h9.8V56.71c0-13.39-.24-23.07-0.84-33.23l0.36-.12a255.73,255.73,0,0,0,15.06,26.89l25.58,40.88H267V10.58h-9.8V44.28Z" transform="translate(-6.93 -10.58)"/><path class="cls-1" d="M333.93,10.58V58.27c0,17.81-7.65,25.7-19.6,25.7-10.76,0-18.76-7.65-18.76-25.7V10.58H285V58c0,25,12.43,34.42,28.92,34.42,17.45,0,30.48-10.16,30.48-34.9v-47H333.93Z" transform="translate(-6.93 -10.58)"/><rect class="cls-1" x="103.82" width="69.33" height="12"/><rect class="cls-1" x="103.82" y="34" width="69.33" height="12"/><rect class="cls-1" x="103.82" y="68.56" width="69.33" height="12"/></svg>