<?xml version="1.0" encoding="utf-8"?>
<!-- Generator: Adobe Illustrator 19.2.1, SVG Export Plug-In . SVG Version: 6.00 Build 0)  -->
<svg version="1.1" id="Capa_1" xmlns="http://www.w3.org/2000/svg" xmlns:xlink="http://www.w3.org/1999/xlink" x="0px" y="0px"
	 viewBox="0 0 59 59" style="enable-background:new 0 0 59 59;" xml:space="preserve">
<style type="text/css">
	.st0{fill:#262626;}
</style>
<path class="st0" d="M39.9,41.9c-0.5,0.5-1,1.1-1.4,1.7L21.3,33.1c0.5-1.1,0.7-2.4,0.7-3.7s-0.3-2.5-0.7-3.7l17.3-10.4
	c1.8,2.8,4.9,4.6,8.4,4.6c5.5,0,10-4.5,10-10S52.5,0,47,0S37,4.5,37,10c0,1.3,0.2,2.5,0.7,3.6L20.4,24c-1.8-2.7-4.9-4.5-8.4-4.5
	c-5.5,0-10,4.5-10,10s4.5,10,10,10c3.5,0,6.6-1.8,8.4-4.5l17.3,10.5C37.2,46.6,37,47.8,37,49c0,2.7,1,5.2,2.9,7.1
	C41.9,58,44.4,59,47,59s5.1-1,7.1-2.9C56,54.2,57,51.7,57,49s-1-5.2-2.9-7.1C50.2,38,43.8,38,39.9,41.9z M47,2c4.4,0,8,3.6,8,8
	s-3.6,8-8,8s-8-3.6-8-8S42.6,2,47,2z M12,37.5c-4.4,0-8-3.6-8-8s3.6-8,8-8s8,3.6,8,8S16.4,37.5,12,37.5z M52.7,54.7
	c-3.1,3.1-8.2,3.1-11.3,0C39.8,53.1,39,51.1,39,49s0.8-4.1,2.3-5.7c1.6-1.6,3.6-2.3,5.7-2.3s4.1,0.8,5.7,2.3
	c1.5,1.5,2.3,3.5,2.3,5.7S54.2,53.1,52.7,54.7z"/>
</svg>
